<?xml version="1.0" encoding="UTF-8" standalone="no"?>
<!-- Created with Inkscape (http://www.inkscape.org/) -->

<svg
   version="1.1"
   id="svg1"
   width="1330.6667"
   height="742.66669"
   viewBox="0 0 1330.6667 742.66669"
   xmlns="http://www.w3.org/2000/svg"
   xmlns:svg="http://www.w3.org/2000/svg">
  <defs
     id="defs1" />
  <g
     id="g1"
     style="display:inline"
     transform="matrix(-1,0,0,1,1328.7201,0)">
    <g
       id="g2"
       style="display:inline">
      <path
         style="display:inline;fill:#b0cf3e"
         d="m 170.33334,673.78364 c 0.91667,-0.36988 2.41667,-0.36988 3.33334,0 0.91666,0.36989 0.16666,0.67252 -1.66667,0.67252 -1.83333,0 -2.58333,-0.30263 -1.66667,-0.67252 z m 26.75001,-0.0278 c 0.9625,-0.38516 2.1125,-0.3378 2.55555,0.10526 0.44306,0.44306 -0.34444,0.75819 -1.75,0.70029 -1.55326,-0.064 -1.8692,-0.37992 -0.80555,-0.80555 z m 880.00005,0 c 0.9625,-0.38516 2.1125,-0.3378 2.5556,0.10526 0.443,0.44306 -0.3445,0.75819 -1.75,0.70029 -1.5533,-0.064 -1.8692,-0.37992 -0.8056,-0.80555 z m 26.6667,0 c 0.9625,-0.38516 2.1125,-0.3378 2.5555,0.10526 0.4431,0.44306 -0.3444,0.75819 -1.75,0.70029 -1.5532,-0.064 -1.8692,-0.37992 -0.8055,-0.80555 z m -944.08342,-1.30556 c 0.91666,-0.36988 2.41666,-0.36988 3.33333,0 0.91667,0.36988 0.16667,0.67252 -1.66667,0.67252 -1.83333,0 -2.58333,-0.30264 -1.66666,-0.67252 z m -55.12669,-27.45029 -2.53998,-3 3,2.53998 c 2.81926,2.38696 3.60698,3.46002 2.53998,3.46002 -0.25301,0 -1.60301,-1.35 -3,-3 z m 166.79336,-6.33334 c 3.61153,-3.66666 6.86642,-6.66666 7.23309,-6.66666 0.36667,0 -2.28822,3 -5.89976,6.66666 -3.61153,3.66667 -6.86642,6.66667 -7.23309,6.66667 -0.36666,0 2.28823,-3 5.89976,-6.66667 z m 732.56575,0.33334 -3.2324,-3.66667 3.6667,3.23242 c 2.0167,1.77783 3.6667,3.42783 3.6667,3.66667 0,1.0457 -1.0798,0.19463 -4.101,-3.23242 z m 174.101,-0.33334 c 1.3273,-1.46666 2.7133,-2.66666 3.0799,-2.66666 0.3667,0 -0.4193,1.2 -1.7466,2.66666 -1.3273,1.46667 -2.7133,2.66667 -3.08,2.66667 -0.3666,0 0.4194,-1.2 1.7467,-2.66667 z M 90.496598,631.00002 c -1.658494,-2.11474 -1.611333,-2.1619 0.503408,-0.50341 1.283333,1.00646 2.333333,2.05646 2.333333,2.33333 0,1.09738 -1.094914,0.39107 -2.836741,-1.82992 z m 89.836742,-21.30463 c 2.75,-0.28766 7.25,-0.28766 10,0 2.75001,0.28766 0.50001,0.52302 -5,0.52302 -5.5,0 -7.75,-0.23536 -5,-0.52302 z m 906.03526,-0.007 c 3.1361,-0.28166 7.9361,-0.2777 10.6667,0.009 2.7306,0.28651 0.1648,0.51696 -5.7019,0.51211 -5.8667,-0.005 -8.1008,-0.23925 -4.9648,-0.52091 z m -37.0807,-17.35534 -7.2878,-7.66667 7.6666,7.28779 c 7.1226,6.77058 8.2775,8.04555 7.2878,8.04555 -0.2084,0 -3.6584,-3.45 -7.6666,-7.66667 z m 82.7122,0.33333 c 3.9832,-4.03333 7.5422,-7.33333 7.9089,-7.33333 0.3666,0 -2.5924,3.3 -6.5756,7.33333 -3.9832,4.03334 -7.5422,7.33334 -7.9089,7.33334 -0.3667,0 2.5923,-3.3 6.5756,-7.33334 z m -986.83683,2.33334 c -1.6585,-2.11474 -1.61134,-2.16191 0.50341,-0.50341 1.28333,1.00646 2.33333,2.05646 2.33333,2.33333 0,1.09738 -1.09492,0.39107 -2.83674,-1.82992 z m -5.33334,-5.33334 c -1.65849,-2.11474 -1.61133,-2.1619 0.50341,-0.5034 1.28334,1.00646 2.33334,2.05646 2.33334,2.33333 0,1.09738 -1.09492,0.39107 -2.83675,-1.82993 z m 829.60873,-17.11111 c 0.064,-1.55326 0.37992,-1.8692 0.80555,-0.80555 0.38516,0.9625 0.33779,2.1125 -0.10526,2.55555 -0.44306,0.44306 -0.75819,-0.34444 -0.70029,-1.75 z M 62.771934,569.8889 c 0.06398,-1.55325 0.37992,-1.86919 0.805555,-0.80555 0.385161,0.9625 0.337793,2.1125 -0.105263,2.55555 -0.443055,0.44306 -0.758187,-0.34444 -0.700292,-1.75 z m 244.000016,-2.66666 c 0.064,-1.55326 0.37992,-1.8692 0.80555,-0.80556 0.38517,0.9625 0.3378,2.1125 -0.10526,2.55556 -0.44305,0.44305 -0.75819,-0.34445 -0.70029,-1.75 z m 906.82135,-3.88889 c 0.027,-2.2 0.326,-2.93858 0.6641,-1.64129 0.3381,1.29729 0.3158,3.09729 -0.049,4 -0.3652,0.90271 -0.6418,-0.15871 -0.6147,-2.35871 z m -245.257,-2.66667 c 0.0148,-2.93333 0.28785,-3.97634 0.60677,-2.31779 0.31893,1.65855 0.30682,4.05855 -0.0269,5.33334 -0.33373,1.27478 -0.59467,-0.0822 -0.57987,-3.01555 z m -725.56436,-1.44444 c 0.064,-1.55326 0.37993,-1.8692 0.80556,-0.80556 0.38516,0.9625 0.33779,2.1125 -0.10526,2.55556 -0.44306,0.44305 -0.75819,-0.34445 -0.7003,-1.75 z M 61.760103,550.66668 c 0,-4.76667 0.241992,-6.71667 0.537762,-4.33333 0.295769,2.38333 0.295769,6.28333 0,8.66667 -0.29577,2.38333 -0.537762,0.43333 -0.537762,-4.33334 z m 1087.954697,2 c 0.01,-3.66666 0.2689,-5.00842 0.5754,-2.98167 0.3065,2.02675 0.2983,5.02675 -0.018,6.66667 -0.3165,1.63992 -0.5673,-0.0183 -0.5572,-3.685 z m -306.71475,3.19698 c -2.32259,-2.41128 -2.11291,-17.59013 0.37492,-27.14157 4.52001,-17.35348 18.35023,-34.96209 34.01973,-43.31385 11.1039,-5.91831 25.2277,-9.13286 35.93869,-8.17957 l 8.66667,0.77134 -0.0942,12.66667 c -0.11461,15.40567 -3.05667,24.49007 -12.2536,37.8363 -7.21665,10.47251 -18.19104,19.04745 -31.24193,24.41116 -10.02168,4.11876 -32.48198,5.98961 -35.41024,2.94952 z m 189.38135,-4.53031 c 0.01,-3.66667 0.269,-5.00842 0.5754,-2.98167 0.3065,2.02675 0.2983,5.02675 -0.018,6.66667 -0.3164,1.63992 -0.5672,-0.0183 -0.5572,-3.685 z m -789.50419,-6 c 0,-1.83334 0.30263,-2.58334 0.67251,-1.66667 0.36989,0.91667 0.36989,2.41667 0,3.33333 -0.36988,0.91667 -0.67251,0.16667 -0.67251,-1.66666 z m 970.71609,-3.33334 c 0.027,-2.2 0.326,-2.93858 0.6641,-1.64129 0.3381,1.29729 0.3158,3.09729 -0.049,4 -0.3652,0.90271 -0.6418,-0.15871 -0.6147,-2.35871 z m -245.2839,-2 c 0,-2.56666 0.27439,-3.61666 0.60976,-2.33333 0.33537,1.28333 0.33537,3.38333 0,4.66667 -0.33537,1.28333 -0.60976,0.23333 -0.60976,-2.33334 z m -661.53745,-3.44444 c 0.064,-1.55326 0.37992,-1.8692 0.80555,-0.80556 0.38517,0.9625 0.3378,2.1125 -0.10526,2.55556 -0.44305,0.44306 -0.75819,-0.34444 -0.70029,-1.75 z m -244.000016,-4 c 0.06398,-1.55326 0.37992,-1.8692 0.805555,-0.80556 0.385161,0.9625 0.337793,2.1125 -0.105263,2.55556 -0.443055,0.44306 -0.758187,-0.34444 -0.700292,-1.75 z M 1212.1053,531.22224 c 0.064,-1.55326 0.38,-1.8692 0.8056,-0.80556 0.3852,0.9625 0.3378,2.1125 -0.1053,2.55556 -0.443,0.44305 -0.7582,-0.34445 -0.7003,-1.75 z M 969.43866,529.8889 c 0.064,-1.55325 0.37992,-1.8692 0.80555,-0.80555 0.38516,0.9625 0.33779,2.1125 -0.10526,2.55555 -0.44306,0.44306 -0.75819,-0.34444 -0.70029,-1.75 z m 310.89474,-1.47465 c 1.2833,-0.33537 3.3833,-0.33537 4.6667,0 1.2833,0.33537 0.2333,0.60976 -2.3334,0.60976 -2.5666,0 -3.6166,-0.27439 -2.3333,-0.60976 z m -797.41481,-11.0327 c -10.83191,-2.92884 -19.71636,-7.39612 -20.91347,-10.51572 -1.4464,-3.76927 7.38599,-18.91858 16.82077,-28.85094 7.57591,-7.97546 10.87982,-10.36113 19.16631,-13.8395 11.56363,-4.85399 27.50224,-7.46236 37.7644,-6.18019 12.68519,1.58491 30.91085,9.00577 30.90905,12.5851 -5.8e-4,1.14751 -1.80209,5.89344 -4.00336,10.54652 -4.7697,10.08229 -17.2668,23.10507 -27.99559,29.17318 -15.00847,8.48868 -35.94693,11.35403 -51.74811,7.08155 z m -256.98131,-7.0482 -5.2706,-5.66667 5.66667,5.2706 c 5.26994,4.9016 6.27936,6.06273 5.27059,6.06273 -0.21783,0 -2.76783,-2.55 -5.66666,-5.66666 z m 822.72942,0.33333 c 1.3273,-1.46667 2.7133,-2.66667 3.08,-2.66667 0.3667,0 -0.4193,1.2 -1.7466,2.66667 -1.3274,1.46667 -2.7133,2.66667 -3.08,2.66667 -0.3667,0 0.4193,-1.2 1.7466,-2.66667 z m 83.8734,-0.33333 -2.54,-3 3,2.53998 c 1.65,1.39699 3,2.74699 3,3 0,1.06701 -1.0731,0.27928 -3.46,-2.53998 z m 171.8731,-13.66667 c 0.01,-4.4 0.2564,-6.03925 0.5532,-3.64279 0.2967,2.39647 0.2906,5.99647 -0.014,8 -0.3043,2.00354 -0.547,0.0428 -0.5396,-4.35721 z m -485.74648,-2.66667 c 0.91292,-1.1 2.08638,-2 2.6077,-2 0.52132,0 0.94785,0.9 0.94785,2 0,1.1 -1.17346,2 -2.6077,2 -2.16678,0 -2.32705,-0.33816 -0.94785,-2 z m -644.25004,-0.24415 c 0.9625,-0.38516 2.1125,-0.33779 2.55555,0.10526 0.44306,0.44306 -0.34444,0.75819 -1.75,0.7003 -1.55325,-0.064 -1.8692,-0.37992 -0.80555,-0.80556 z m 20,0 c 0.9625,-0.38516 2.1125,-0.33779 2.55555,0.10526 0.44306,0.44306 -0.34444,0.75819 -1.75,0.7003 -1.55325,-0.064 -1.8692,-0.37992 -0.80555,-0.80556 z M 86.666672,476.82994 c 0,-0.27687 1.05,-1.32687 2.333333,-2.33333 2.114741,-1.6585 2.161902,-1.61134 0.503408,0.5034 -1.741827,2.221 -2.836741,2.92731 -2.836741,1.82993 z M 1231.83,473.66668 c -1.6585,-2.11474 -1.6113,-2.1619 0.5034,-0.50341 2.221,1.74183 2.9273,2.83674 1.8299,2.83674 -0.2768,0 -1.3268,-1.05 -2.3333,-2.33333 z m -955.9309,-5.33333 -3.23242,-3.66667 3.66667,3.23242 c 3.42705,3.02118 4.27812,4.10091 3.23242,4.10091 -0.23884,0 -1.88884,-1.65 -3.66667,-3.66666 z m 589.43429,3.16326 c 0,-0.27688 1.05,-1.32688 2.33333,-2.33334 2.11474,-1.65849 2.1619,-1.61133 0.50341,0.50341 -1.74183,2.221 -2.83674,2.9273 -2.83674,1.82993 z M 92.000006,470.24947 c 0,-0.22947 1.95,-2.17947 4.333333,-4.33334 l 4.333331,-3.91612 -3.916119,4.33334 c -3.650374,4.03927 -4.750545,4.9462 -4.750545,3.91612 z M 1225.1633,467.00001 c -1.6585,-2.11474 -1.6113,-2.1619 0.5034,-0.5034 2.221,1.74182 2.9273,2.83674 1.83,2.83674 -0.2769,0 -1.3269,-1.05 -2.3334,-2.33334 z m -218.4966,-5 c 1.7224,-1.83333 3.4315,-3.33333 3.7982,-3.33333 0.3667,0 -0.7425,1.5 -2.4648,3.33333 -1.7224,1.83334 -3.4315,3.33334 -3.7982,3.33334 -0.3667,0 0.7425,-1.5 2.4648,-3.33334 z m 167.8991,-0.33333 -3.2324,-3.66667 3.6667,3.23242 c 2.0166,1.77783 3.6666,3.42783 3.6666,3.66667 0,1.0457 -1.0797,0.19463 -4.1009,-3.23242 z m 45.9743,-0.66667 -2.54,-3 3,2.53999 c 2.8192,2.38695 3.607,3.46001 2.54,3.46001 -0.2531,0 -1.6031,-1.35 -3,-3 z m -341.87338,1.16326 c 0,-0.27687 1.05,-1.32687 2.33333,-2.33333 2.11474,-1.6585 2.16191,-1.61133 0.50341,0.50341 -1.74183,2.22099 -2.83674,2.9273 -2.83674,1.82992 z M 264.54,458.33335 l -2.53998,-3 3,2.53998 c 2.81926,2.38696 3.60698,3.46002 2.53998,3.46002 -0.25301,0 -1.60301,-1.35 -3,-3 z m 642.12672,-3 c 2.48771,-2.56667 4.82311,-4.66667 5.18978,-4.66667 0.36667,0 -1.36873,2.1 -3.85644,4.66667 -2.48772,2.56666 -4.82312,4.66666 -5.18978,4.66666 -0.36667,0 1.36873,-2.1 3.85644,-4.66666 z m 299.92828,-9.66667 -4.5949,-5 5,4.59489 c 4.6539,4.27682 5.613,5.40511 4.5949,5.40511 -0.2228,0 -2.4728,-2.25 -5,-5 z m -594.9283,2.67947 c 4.58334,-0.26036 12.08334,-0.26036 16.66667,0 4.58334,0.26036 0.83334,0.47338 -8.33333,0.47338 -9.16667,0 -12.91667,-0.21302 -8.33334,-0.47338 z m 412.3334,0.48379 c 0,-0.27688 1.05,-1.32688 2.3333,-2.33333 2.1147,-1.6585 2.1619,-1.61134 0.5034,0.5034 -1.7418,2.221 -2.8367,2.92731 -2.8367,1.82993 z m -439.66673,-1.74903 c 1.28333,-0.33537 3.38333,-0.33537 4.66667,0 1.28333,0.33537 0.23333,0.60977 -2.33334,0.60977 -2.56666,0 -3.61666,-0.2744 -2.33333,-0.60977 z m 82,-0.0219 c 1.65,-0.3178 4.35,-0.3178 6,0 1.65,0.31781 0.3,0.57783 -3,0.57783 -3.3,0 -4.65,-0.26002 -3,-0.57783 z m -99.30796,-1.31634 c 1.29729,-0.33806 3.09729,-0.31582 4,0.0494 0.90271,0.36523 -0.15871,0.64182 -2.35871,0.61465 -2.2,-0.0272 -2.93858,-0.326 -1.64129,-0.66406 z m 119.97463,0.005 c 1.28334,-0.33537 3.38334,-0.33537 4.66667,0 1.28333,0.33537 0.23333,0.60976 -2.33333,0.60976 -2.56667,0 -3.61667,-0.27439 -2.33334,-0.60976 z M 554.33337,444.4503 c 0.91666,-0.36988 2.41666,-0.36988 3.33333,0 0.91667,0.36989 0.16667,0.67252 -1.66667,0.67252 -1.83333,0 -2.58333,-0.30263 -1.66666,-0.67252 z m 148.00001,0 c 0.91666,-0.36988 2.41666,-0.36988 3.33333,0 0.91667,0.36989 0.16667,0.67252 -1.66667,0.67252 -1.83333,0 -2.58333,-0.30263 -1.66666,-0.67252 z m -157.25001,-1.36111 c 0.9625,-0.38516 2.1125,-0.33779 2.55555,0.10527 0.44306,0.44305 -0.34444,0.75818 -1.75,0.70029 -1.55326,-0.064 -1.8692,-0.37992 -0.80555,-0.80556 z m 169.33334,0 c 0.9625,-0.38516 2.1125,-0.33779 2.55556,0.10527 0.44305,0.44305 -0.34445,0.75818 -1.75,0.70029 -1.55326,-0.064 -1.8692,-0.37992 -0.80556,-0.80556 z m -183.41668,-1.34161 c 1.28334,-0.33537 3.38334,-0.33537 4.66667,0 1.28333,0.33537 0.23333,0.60976 -2.33333,0.60976 -2.56667,0 -3.61667,-0.27439 -2.33334,-0.60976 z m 194.08335,0.008 c 0.9625,-0.38516 2.1125,-0.33779 2.55555,0.10526 0.44306,0.44306 -0.34444,0.75819 -1.75,0.7003 -1.55325,-0.064 -1.8692,-0.37992 -0.80555,-0.80556 z m 9.33333,-1.33333 c 0.9625,-0.38516 2.1125,-0.3378 2.55556,0.10526 0.44305,0.44306 -0.34445,0.75819 -1.75,0.70029 -1.55326,-0.064 -1.8692,-0.37992 -0.80556,-0.80555 z m 9.33334,-1.33334 c 0.9625,-0.38516 2.1125,-0.33779 2.55555,0.10527 0.44306,0.44305 -0.34444,0.75818 -1.75,0.70029 -1.55326,-0.064 -1.8692,-0.37992 -0.80555,-0.80556 z m 16,-2.66666 c 0.9625,-0.38516 2.1125,-0.3378 2.55555,0.10526 0.44306,0.44306 -0.34444,0.75819 -1.75,0.70029 -1.55326,-0.064 -1.8692,-0.37992 -0.80555,-0.80555 z m 15.91666,-2.63889 c 0.91667,-0.36989 2.41667,-0.36989 3.33334,0 0.91666,0.36988 0.16666,0.67251 -1.66667,0.67251 -1.83333,0 -2.58333,-0.30263 -1.66667,-0.67251 z m -618.6667,-2.66667 c 0.91667,-0.36988 2.41667,-0.36988 3.33333,0 0.91667,0.36988 0.16667,0.67252 -1.66666,0.67252 -1.83334,0 -2.58334,-0.30264 -1.66667,-0.67252 z m 10.75,-1.36111 c 0.9625,-0.38516 2.1125,-0.33779 2.55556,0.10526 0.44305,0.44306 -0.34445,0.75819 -1.75,0.7003 -1.55326,-0.064 -1.8692,-0.37993 -0.80556,-0.80556 z m 33.33334,0 c 0.9625,-0.38516 2.1125,-0.33779 2.55555,0.10526 0.44306,0.44306 -0.34444,0.75819 -1.75,0.7003 -1.55326,-0.064 -1.8692,-0.37993 -0.80555,-0.80556 z m -18.75001,-1.36349 c 1.65,-0.31781 4.35,-0.31781 6,0 1.65,0.3178 0.3,0.57782 -3,0.57782 -3.3,0 -4.65,-0.26002 -3,-0.57782 z m 906.68226,-0.002 c 1.6586,-0.31892 4.0586,-0.30682 5.3333,0.0269 1.2748,0.33372 -0.082,0.59466 -3.0155,0.57986 -2.9333,-0.0148 -3.9763,-0.28785 -2.3178,-0.60677 z M 534.34891,427.057 c 1.65855,-0.31893 4.05855,-0.30682 5.33334,0.0269 1.27478,0.33373 -0.0822,0.59467 -3.01555,0.57987 -2.93333,-0.0148 -3.97634,-0.28785 -2.31779,-0.60677 z m 36.02915,-0.0415 c 3.87459,-0.27019 9.87459,-0.26735 13.33334,0.006 3.45875,0.27367 0.28864,0.49473 -7.0447,0.49126 -7.33333,-0.003 -10.16322,-0.22738 -6.28864,-0.49757 z m -65.37803,-1.28977 c 1.65,-0.3178 4.35,-0.3178 6,0 1.65,0.3178 0.3,0.57783 -3,0.57783 -3.3,0 -4.65,-0.26003 -3,-0.57783 z m 101.34889,-0.002 c 1.65855,-0.31892 4.05855,-0.30681 5.33333,0.0269 1.27478,0.33372 -0.0822,0.59466 -3.01555,0.57986 -2.93333,-0.0148 -3.97633,-0.28784 -2.31778,-0.60677 z M 26.666668,422.00001 c 3.62379,-3.85735 5.546657,-4.58568 2.125143,-0.80495 -1.778024,1.9647 -1.898411,2.68438 -0.539984,3.22807 0.961496,0.38483 0.293586,0.74706 -1.484244,0.80495 l -3.232419,0.10526 z m 599.000032,2.41423 c 1.28334,-0.33537 3.38334,-0.33537 4.66667,0 1.28334,0.33537 0.23334,0.60977 -2.33333,0.60977 -2.56667,0 -3.61667,-0.2744 -2.33334,-0.60977 z m -139.25,-1.32505 c 0.9625,-0.38516 2.1125,-0.33779 2.55555,0.10527 0.44306,0.44305 -0.34444,0.75818 -1.75,0.70029 -1.55326,-0.064 -1.8692,-0.37992 -0.80555,-0.80556 z m 154.58334,0.0278 c 0.91667,-0.36988 2.41667,-0.36988 3.33333,0 0.91667,0.36988 0.16667,0.67252 -1.66666,0.67252 -1.83334,0 -2.58334,-0.30264 -1.66667,-0.67252 z m 22.75,-2.69444 c 0.9625,-0.38516 2.1125,-0.3378 2.55556,0.10526 0.44305,0.44305 -0.34445,0.75819 -1.75,0.70029 -1.55326,-0.064 -1.8692,-0.37992 -0.80556,-0.80555 z m 9.33333,-1.33334 c 0.9625,-0.38516 2.1125,-0.33779 2.55556,0.10527 0.44306,0.44305 -0.34444,0.75818 -1.75,0.70029 -1.55326,-0.064 -1.8692,-0.37992 -0.80556,-0.80556 z m 499.54163,-7.42251 -7.9583,-8.33334 8.3334,7.95827 c 7.7409,7.39254 8.9434,8.7084 7.9582,8.7084 -0.2063,0 -3.9563,-3.75 -8.3333,-8.33333 z m -490.20829,6.08918 c 0.9625,-0.38516 2.1125,-0.33779 2.55555,0.10526 0.44306,0.44306 -0.34444,0.75819 -1.75,0.70029 -1.55325,-0.064 -1.8692,-0.37992 -0.80555,-0.80555 z m -261.08335,-6.42252 -3.33333,-1.9055 4.66666,0.058 c 2.56667,0.0319 3.91293,0.3619 2.9917,0.7333 -0.92124,0.37141 -1.33583,1.22404 -0.92132,1.89474 0.98332,1.59104 0.58527,1.49976 -3.40371,-0.78055 z m 845.23244,-4.33333 -3.2324,-3.66667 3.6667,3.23242 c 2.0166,1.77783 3.6666,3.42783 3.6666,3.66667 0,1.0457 -1.0797,0.19463 -4.1009,-3.23242 z M 97.083339,405.75586 c 0.9625,-0.38516 2.1125,-0.33779 2.555556,0.10526 0.443055,0.44306 -0.344444,0.75819 -1.75,0.70029 -1.553258,-0.064 -1.869199,-0.37992 -0.805556,-0.80555 z m 11.916671,-1.30556 c 0.91666,-0.36988 2.41666,-0.36988 3.33333,0 0.91667,0.36989 0.16667,0.67252 -1.66667,0.67252 -1.83333,0 -2.58333,-0.30263 -1.66666,-0.67252 z m 17.33333,-1.39127 c 1.65,-0.3178 4.35,-0.3178 6,0 1.65,0.31781 0.3,0.57783 -3,0.57783 -3.3,0 -4.65,-0.26002 -3,-0.57783 z m 47.97026,-1.35466 c 2.36698,-0.29455 6.56698,-0.29939 9.33334,-0.0108 2.76636,0.28864 0.82974,0.52963 -4.3036,0.53555 -5.13333,0.006 -7.39671,-0.23024 -5.02974,-0.52479 z m 39.36308,-1.29013 c 1.28333,-0.33537 3.38333,-0.33537 4.66667,0 1.28333,0.33537 0.23333,0.60977 -2.33334,0.60977 -2.56666,0 -3.61666,-0.2744 -2.33333,-0.60977 z m 18,-1.29727 c 0.91667,-0.36988 2.41667,-0.36988 3.33333,0 0.91667,0.36988 0.16667,0.67251 -1.66666,0.67251 -1.83334,0 -2.58334,-0.30263 -1.66667,-0.67251 z m 1018.95452,-6.78363 -7.2878,-7.66666 7.6667,7.28778 c 7.1226,6.77059 8.2774,8.04555 7.2878,8.04555 -0.2084,0 -3.6584,-3.45 -7.6667,-7.66667 z m -1005.53785,5.42252 c 0.9625,-0.38516 2.1125,-0.33779 2.55555,0.10526 0.44306,0.44306 -0.34444,0.75819 -1.75,0.70029 -1.55325,-0.064 -1.8692,-0.37992 -0.80555,-0.80555 z M 490.6667,397.6351 c 0,-0.61898 0.90147,-2.29009 2.00327,-3.71358 1.97275,-2.54874 1.98993,-2.54755 1.12764,0.0785 -0.71513,2.17785 -0.0445,1.93344 3.65855,-1.33333 l 4.53418,-4 -3.32849,3.78909 c -3.63685,4.14014 -7.99515,6.96348 -7.99515,5.17933 z m 422.77195,-1.07953 c 0.064,-1.55326 0.37992,-1.8692 0.80556,-0.80556 0.38516,0.9625 0.33779,2.1125 -0.10527,2.55556 -0.44305,0.44305 -0.75818,-0.34445 -0.70029,-1.75 z m -659.02197,-0.13304 c 0.9625,-0.38517 2.1125,-0.3378 2.55556,0.10526 0.44305,0.44305 -0.34445,0.75819 -1.75,0.70029 -1.55326,-0.064 -1.8692,-0.37992 -0.80556,-0.80555 z m 20,-4 c 0.9625,-0.38517 2.1125,-0.3378 2.55556,0.10526 0.44305,0.44305 -0.34445,0.75819 -1.75,0.70029 -1.55326,-0.064 -1.8692,-0.37992 -0.80556,-0.80555 z M 1143.83,385.66668 c -1.6585,-2.11474 -1.6113,-2.1619 0.5034,-0.50341 1.2833,1.00646 2.3333,2.05646 2.3333,2.33333 0,1.09738 -1.0949,0.39107 -2.8367,-1.82992 z M 138.41668,384.42253 c 0.9625,-0.38517 2.1125,-0.3378 2.55555,0.10526 0.44306,0.44305 -0.34444,0.75819 -1.75,0.70029 -1.55326,-0.064 -1.8692,-0.37992 -0.80555,-0.80555 z m 12,-1.33334 c 0.9625,-0.38516 2.1125,-0.33779 2.55555,0.10526 0.44306,0.44306 -0.34444,0.75819 -1.75,0.7003 -1.55326,-0.064 -1.8692,-0.37992 -0.80555,-0.80556 z m 15.91666,-1.30555 c 0.91667,-0.36989 2.41667,-0.36989 3.33334,0 0.91666,0.36988 0.16666,0.67251 -1.66667,0.67251 -1.83333,0 -2.58333,-0.30263 -1.66667,-0.67251 z m 970.82996,-1.4503 c -1.6585,-2.11474 -1.6113,-2.1619 0.5034,-0.5034 2.221,1.74182 2.9273,2.83674 1.83,2.83674 -0.2769,0 -1.3269,-1.05 -2.3334,-2.33334 z m -946.12306,0.0183 c 3.50546,-0.27557 8.90546,-0.27225 12,0.007 3.09454,0.27963 0.22644,0.50509 -6.37356,0.50103 -6.6,-0.004 -9.1319,-0.23285 -5.62644,-0.50842 z m 30.62644,-1.27074 c 1.28333,-0.33537 3.38333,-0.33537 4.66667,0 1.28333,0.33537 0.23333,0.60976 -2.33334,0.60976 -2.56666,0 -3.61666,-0.27439 -2.33333,-0.60976 z m 14.08333,-1.32505 c 0.9625,-0.38516 2.1125,-0.33779 2.55556,0.10526 0.44306,0.44306 -0.34444,0.75819 -1.75,0.70029 -1.55326,-0.064 -1.8692,-0.37992 -0.80556,-0.80555 z m 996.79009,-2.08918 -2.54,-3 3,2.53998 c 1.65,1.39699 3,2.74699 3,3 0,1.067 -1.0731,0.27928 -3.46,-2.53998 z m -986.12342,0.75584 c 0.9625,-0.38516 2.1125,-0.33779 2.55556,0.10527 0.44305,0.44305 -0.34445,0.75819 -1.75,0.70029 -1.55326,-0.064 -1.8692,-0.37992 -0.80556,-0.80556 z M 1130.4967,375 c -1.6585,-2.11474 -1.6114,-2.1619 0.5034,-0.50341 1.2833,1.00646 2.3333,2.05646 2.3333,2.33334 0,1.09738 -1.0949,0.39107 -2.8367,-1.82993 z m 90.0434,-10 -2.54,-3 3,2.53998 c 2.8192,2.38696 3.607,3.46002 2.54,3.46002 -0.2531,0 -1.6031,-1.35 -3,-3 z m -555.3768,-3.33333 c -1.65849,-2.11474 -1.61133,-2.1619 0.50341,-0.50341 1.28333,1.00646 2.33333,2.05646 2.33333,2.33333 0,1.09738 -1.09491,0.39107 -2.83674,-1.82992 z m -331.82995,0.49659 c 0,-0.27687 1.05,-1.32687 2.33334,-2.33333 2.11474,-1.6585 2.1619,-1.61134 0.5034,0.5034 -1.74182,2.221 -2.83674,2.92731 -2.83674,1.82993 z m 351.27062,-6.49659 -5.2706,-5.66667 5.66667,5.2706 c 5.26995,4.9016 6.27937,6.06273 5.2706,6.06273 -0.21784,0 -2.76784,-2.55 -5.66667,-5.66666 z m -225.48653,2.80196 c -7.57168,-1.69982 -8.95491,-3.64469 -7.20752,-10.13401 3.16321,-11.74724 15.74237,-24.64475 28.38795,-29.10637 11.11849,-3.92283 34.36883,-1.35247 34.36883,3.79953 0,4.75397 -4.72046,14.7486 -9.56534,20.25267 -11.67648,13.26518 -29.02522,18.99535 -45.98392,15.18818 z M 1211.83,357.66668 c -1.6585,-2.11474 -1.6113,-2.1619 0.5034,-0.50341 2.221,1.74183 2.9273,2.83674 1.8299,2.83674 -0.2768,0 -1.3268,-1.05 -2.3333,-2.33333 z M 210.92508,353.96247 c -13.26785,-2.88063 -27.38973,-10.66777 -35.77941,-19.72963 -6.3371,-6.84482 -16.47899,-23.75517 -16.47899,-27.47667 0,-2.11995 10.61792,-7.6375 20.47378,-10.6391 24.20714,-7.3723 50.42773,-0.36808 68.85956,18.39422 8.75644,8.91343 18.27291,25.11704 16.88127,28.74358 -1.08535,2.82839 -14.06162,8.57119 -24.23787,10.72675 -11.2913,2.39176 -18.63575,2.38702 -29.71834,-0.0192 z m 578.51941,0.26288 c 2.85407,-2.26724 13.15043,-7.07874 11.88485,-5.5538 -1.3683,1.6487 -1.22231,2.01061 0.84078,2.08432 1.37313,0.0491 -0.2034,0.93995 -3.5034,1.97976 -5.50783,1.73548 -10.55867,2.55138 -9.22223,1.48972 z m -136.86166,-5.22534 -3.91612,-4.33333 4.33333,3.91612 c 4.03927,3.65037 4.9462,4.75054 3.91612,4.75054 -0.22946,0 -2.17946,-1.95 -4.33333,-4.33333 z m 551.24717,2 c -1.6585,-2.11474 -1.6113,-2.1619 0.5034,-0.50341 2.221,1.74183 2.9273,2.83674 1.8299,2.83674 -0.2768,0 -1.3268,-1.05 -2.3333,-2.33333 z m -887.82998,-2.08388 c 0,-0.22947 1.95,-2.17947 4.33333,-4.33333 l 4.33334,-3.91612 -3.91613,4.33333 c -3.65037,4.03927 -4.75054,4.9462 -4.75054,3.91612 z m 356.54,-3.91612 -2.53998,-3 3,2.53998 c 2.81926,2.38696 3.60699,3.46002 2.53998,3.46002 -0.253,0 -1.603,-1.35 -3,-3 z m -313.20666,-3.66667 c 1.32731,-1.46666 2.7133,-2.66666 3.07996,-2.66666 0.36667,0 -0.41932,1.2 -1.74663,2.66666 -1.32732,1.46667 -2.7133,2.66667 -3.07997,2.66667 -0.36666,0 0.41932,-1.2 1.74664,-2.66667 z m 284.49661,0.33334 c -1.6585,-2.11474 -1.61134,-2.16191 0.5034,-0.50341 2.221,1.74183 2.92731,2.83674 1.82993,2.83674 -0.27687,0 -1.32687,-1.05 -2.33333,-2.33333 z m -313.16328,-6.33334 c 1.72232,-1.83333 3.4315,-3.33333 3.79817,-3.33333 0.36666,0 -0.74251,1.5 -2.46484,3.33333 -1.72233,1.83334 -3.4315,3.33334 -3.79817,3.33334 -0.36667,0 0.74251,-1.5 2.46484,-3.33334 z m 434.92082,0.71945 c -11.77568,-3.18891 -21.67631,-8.36062 -28.65162,-14.96652 l -5.18852,-4.91373 2.45967,-4.21865 c 4.29128,-7.36009 19.03827,-20.01581 28.74225,-24.66632 22.59655,-10.8291 47.51146,-8.94019 68.80617,5.2165 5.11522,3.40059 9.6586,7.11634 10.0964,8.25721 1.12411,2.92939 -2.09538,8.53937 -8.94554,15.58767 -17.91398,18.43214 -43.91359,26.04208 -67.31881,19.70384 z m -426.92082,-7.22285 c 0,-0.27688 1.05,-1.32688 2.33333,-2.33334 2.11474,-1.65849 2.1619,-1.61133 0.50341,0.50341 -1.74183,2.221 -2.83674,2.9273 -2.83674,1.82993 z m 8,-6.66667 c 0,-0.27688 1.05,-1.32688 2.33333,-2.33333 2.11474,-1.6585 2.1619,-1.61134 0.50341,0.5034 -1.74183,2.221 -2.83674,2.92731 -2.83674,1.82993 z m 261.92152,-1.45419 c -1.4235,-1.07668 -1.91164,-1.97668 -1.08477,-2 0.82688,-0.0233 2.25035,0.8576 3.16326,1.9576 2.10773,2.53965 1.2464,2.55722 -2.07849,0.0424 z m -251.92152,-7.37574 c 1.32731,-1.46666 2.7133,-2.66666 3.07997,-2.66666 0.36666,0 -0.41932,1.2 -1.74664,2.66666 -1.32731,1.46667 -2.7133,2.66667 -3.07997,2.66667 -0.36666,0 0.41932,-1.2 1.74664,-2.66667 z m 170.48698,-11.33333 c 0.003,-7.33334 0.22738,-10.16322 0.49757,-6.28864 0.27019,3.87458 0.26735,9.87458 -0.006,13.33333 -0.27366,3.45875 -0.49473,0.28864 -0.49126,-7.04469 z m 334.84638,4.66667 c 2.86433,-2.93334 5.50786,-5.33334 5.87453,-5.33334 0.36667,0 -1.67687,2.4 -4.54119,5.33334 -2.86433,2.93333 -5.50786,5.33333 -5.87453,5.33333 -0.36667,0 1.67687,-2.4 4.54119,-5.33333 z m -319.22809,-2.11112 c 0.064,-1.55325 0.37992,-1.8692 0.80556,-0.80555 0.38516,0.9625 0.33779,2.1125 -0.10526,2.55555 -0.44306,0.44306 -0.75819,-0.34444 -0.7003,-1.75 z m 351.89476,1.60771 c 0,-0.27688 1.05,-1.32688 2.33333,-2.33334 2.11475,-1.65849 2.16191,-1.61133 0.50341,0.50341 -1.74182,2.221 -2.83674,2.92731 -2.83674,1.82993 z m 8,-6.82993 c 1.72233,-1.83333 3.43151,-3.33333 3.79817,-3.33333 0.36667,0 -0.74251,1.5 -2.46483,3.33333 -1.72233,1.83333 -3.43151,3.33333 -3.79818,3.33333 -0.36666,0 0.74251,-1.5 2.46484,-3.33333 z m -358.45616,-6 c 0,-1.83333 0.30263,-2.58333 0.67251,-1.66667 0.36989,0.91667 0.36989,2.41667 0,3.33334 -0.36988,0.91666 -0.67251,0.16666 -0.67251,-1.66667 z m 463.64394,-1.60826 c 0.9397,-1.25121 1.2688,-3.05121 0.7314,-4 -0.7868,-1.38919 -0.6256,-1.39871 0.8281,-0.0489 1.508,1.40031 1.3876,2.05866 -0.7314,4 -2.2837,2.09222 -2.3662,2.09709 -0.8281,0.0489 z m -98.52111,-0.14228 c 0,-0.22947 1.95,-2.17947 4.33333,-4.33334 l 4.33334,-3.91612 -3.91613,4.33333 c -3.65037,4.03928 -4.75054,4.94621 -4.75054,3.91613 z M 545.43863,275.22223 c 0.064,-1.55326 0.37992,-1.8692 0.80556,-0.80556 0.38516,0.9625 0.33779,2.1125 -0.10527,2.55556 -0.44305,0.44306 -0.75818,-0.34444 -0.70029,-1.75 z m 347.22809,-8.55556 c 2.86432,-2.93333 5.50786,-5.33333 5.87453,-5.33333 0.36667,0 -1.67687,2.4 -4.5412,5.33333 -2.86432,2.93334 -5.50786,5.33334 -5.87452,5.33334 -0.36667,0 1.67687,-2.4 4.54119,-5.33334 z m 56.33334,3.11696 c 0.91666,-0.36988 2.41666,-0.36988 3.33333,0 0.91667,0.36989 0.16667,0.67252 -1.66667,0.67252 -1.83333,0 -2.58333,-0.30263 -1.66666,-0.67252 z m 16,0 c 0.91667,-0.36988 2.41667,-0.36988 3.33333,0 0.91667,0.36989 0.16667,0.67252 -1.66666,0.67252 -1.83334,0 -2.58334,-0.30263 -1.66667,-0.67252 z M 644.00004,258.78741 c 1.1,-0.62232 3.47202,-1.58324 5.27115,-2.13536 3.02522,-0.92839 3.10756,-0.84028 1.09523,1.17205 -1.19675,1.19675 -3.56876,2.15766 -5.27114,2.13536 -2.38615,-0.0312 -2.63706,-0.29976 -1.09524,-1.17205 z m 26.41667,-1.03155 c 0.9625,-0.38517 2.1125,-0.3378 2.55555,0.10526 0.44306,0.44305 -0.34444,0.75819 -1.75,0.70029 -1.55325,-0.064 -1.8692,-0.37992 -0.80555,-0.80555 z m 9.25,-1.30556 c 0.91666,-0.36988 2.41667,-0.36988 3.33333,0 0.91667,0.36988 0.16667,0.67251 -1.66666,0.67251 -1.83334,0 -2.58334,-0.30263 -1.66667,-0.67251 z m 17.41667,-2.69445 c 0.9625,-0.38516 2.1125,-0.33779 2.55555,0.10527 0.44306,0.44305 -0.34444,0.75819 -1.75,0.70029 -1.55326,-0.064 -1.8692,-0.37992 -0.80555,-0.80556 z m 225.40852,-7.54519 c 0.81676,-0.98414 1.04023,-2.28033 0.49659,-2.88043 -0.54364,-0.6001 -0.2093,-0.64148 0.74298,-0.0919 1.33397,0.76978 1.37301,1.43098 0.17007,2.88043 -0.85873,1.03471 -1.86134,1.8813 -2.228,1.8813 -0.36667,0 0.002,-0.80521 0.81836,-1.78935 z M 817.00005,209.78363 c 0.91667,-0.36988 2.41667,-0.36988 3.33333,0 0.91667,0.36988 0.16667,0.67252 -1.66666,0.67252 -1.83334,0 -2.58334,-0.30264 -1.66667,-0.67252 z m -155.91668,-5.36111 c 0.9625,-0.38516 2.1125,-0.33779 2.55556,0.10526 0.44306,0.44306 -0.34444,0.75819 -1.75,0.7003 -1.55326,-0.064 -1.8692,-0.37992 -0.80556,-0.80556 z m 10.66667,-1.33333 c 0.9625,-0.38516 2.1125,-0.3378 2.55556,0.10526 0.44305,0.44306 -0.34445,0.75819 -1.75,0.70029 -1.55326,-0.064 -1.8692,-0.37992 -0.80556,-0.80555 z m 13.91667,-1.34162 c 1.28333,-0.33537 3.38333,-0.33537 4.66667,0 1.28333,0.33537 0.23333,0.60977 -2.33334,0.60977 -2.56666,0 -3.61666,-0.2744 -2.33333,-0.60977 z m 75.33334,0.0361 c 0.91666,-0.36988 2.41666,-0.36988 3.33333,0 0.91667,0.36988 0.16667,0.67252 -1.66667,0.67252 -1.83333,0 -2.58333,-0.30264 -1.66666,-0.67252 z m -51.97613,-1.4166 c 2.39647,-0.29675 5.99647,-0.29063 8,0.0136 2.00354,0.30423 0.0428,0.54702 -4.35721,0.53954 -4.4,-0.007 -6.03925,-0.2564 -3.64279,-0.55315 z m 32.64279,0.0472 c 1.28334,-0.33537 3.38334,-0.33537 4.66667,0 1.28333,0.33537 0.23333,0.60976 -2.33333,0.60976 -2.56667,0 -3.61667,-0.27439 -2.33334,-0.60976 z m 110.08334,-23.99172 c 0.9625,-0.38516 2.1125,-0.33779 2.55556,0.10526 0.44305,0.44306 -0.34445,0.75819 -1.75,0.7003 -1.55326,-0.064 -1.8692,-0.37993 -0.80556,-0.80556 z m -269.61518,-3.7914 c -13.25708,-3.35894 -24.68037,-9.82207 -34.13484,-19.313 -10.74897,-10.79043 -19.08143,-26.14654 -18.42798,-33.96142 0.4095,-4.89747 0.74467,-5.2289 7.76132,-7.67475 28.53381,-9.94627 62.91132,1.71137 79.85037,27.07779 6.83619,10.23727 12.0212,25.51521 9.63508,28.39031 -4.8693,5.86714 -30.66956,9.03188 -44.68395,5.48107 z m 254.94851,1.12473 c 0.9625,-0.38516 2.1125,-0.33779 2.55556,0.10527 0.44306,0.44305 -0.34444,0.75818 -1.75,0.70029 -1.55326,-0.064 -1.8692,-0.37992 -0.80556,-0.80556 z m -182.05796,-1.3465 c 1.29729,-0.33806 3.09729,-0.31583 4,0.0494 0.90271,0.36523 -0.15871,0.64182 -2.35871,0.61465 -2.2,-0.0272 -2.93858,-0.326 -1.64129,-0.66406 z m 172.72463,0.0132 c 0.9625,-0.38516 2.1125,-0.33779 2.55556,0.10526 0.44305,0.44306 -0.34445,0.75819 -1.75,0.70029 -1.55326,-0.064 -1.8692,-0.37992 -0.80556,-0.80555 z m -160.00001,-1.33333 c 0.9625,-0.38516 2.1125,-0.3378 2.55556,0.10526 0.44305,0.44305 -0.34445,0.75819 -1.75,0.70029 -1.55326,-0.064 -1.8692,-0.37992 -0.80556,-0.80555 z m 9.33333,-1.33334 c 0.9625,-0.38516 2.1125,-0.33779 2.55556,0.10527 0.44306,0.44305 -0.34444,0.75818 -1.75,0.70029 -1.55326,-0.064 -1.8692,-0.37992 -0.80556,-0.80556 z m 130.66668,0 c 0.9625,-0.38516 2.1125,-0.33779 2.55556,0.10527 0.44305,0.44305 -0.34445,0.75818 -1.75,0.70029 -1.55326,-0.064 -1.8692,-0.37992 -0.80556,-0.80556 z m -120.00001,-1.33333 c 0.9625,-0.38516 2.1125,-0.33779 2.55556,0.10526 0.44305,0.44306 -0.34445,0.75819 -1.75,0.70029 -1.55326,-0.064 -1.8692,-0.37992 -0.80556,-0.80555 z m 107.91668,0.0278 c 0.91666,-0.36989 2.41666,-0.36989 3.33333,0 0.91667,0.36988 0.16667,0.67251 -1.66667,0.67251 -1.83333,0 -2.58333,-0.30263 -1.66666,-0.67251 z m -93.3178,-1.39331 c 1.65855,-0.31892 4.05855,-0.30682 5.33334,0.0269 1.27478,0.33372 -0.0822,0.59466 -3.01555,0.57986 -2.93333,-0.0148 -3.97634,-0.28785 -2.31779,-0.60677 z m 80.06779,0.0322 c 0.9625,-0.38516 2.1125,-0.3378 2.55556,0.10526 0.44306,0.44305 -0.34444,0.75819 -1.75,0.70029 -1.55326,-0.064 -1.8692,-0.37992 -0.80556,-0.80555 z m -50.03465,-1.40929 c 4.24344,-0.2654 10.84344,-0.26294 14.66667,0.005 3.82322,0.26841 0.35132,0.48555 -7.71535,0.48255 -8.06667,-0.003 -11.19476,-0.22262 -6.95132,-0.48802 z"
         id="path4" />
      <path
         style="display:inline;fill:#8d6a54"
         d="M 164.66668,672.81447 C 125.71954,666.49294 91.167167,640.03638 73.924053,603.33335 66.171162,586.83084 63.876667,576.96558 63.044927,556.55814 c -0.546531,-13.40959 -0.186043,-20.03201 1.559317,-28.64572 8.656821,-42.72316 38.073416,-76.37922 80.729096,-92.36361 25.50434,-9.55726 64.47051,-7.69122 90.12977,4.3162 35.5127,16.61839 58.75791,44.79368 69.41319,84.135 3.29874,12.17958 3.29666,43.68405 -0.004,56.66667 -11.22062,44.13798 -47.57749,80.07771 -91.71124,90.659 -11.9019,2.85354 -35.60336,3.58118 -48.49463,1.48879 z m 39.33333,-2.20163 c 73.95704,-11.66559 119.16399,-87.14902 94.77131,-158.24258 -12.3953,-36.12667 -44.54305,-66.64466 -80.3724,-76.29783 -33.00471,-8.89216 -66.42197,-4.49607 -94.86021,12.47901 -25.386628,15.15353 -43.234644,37.40246 -53.037415,66.11524 -3.885014,11.37939 -4.382112,14.58535 -4.891387,31.54626 -0.669478,22.29637 1.472984,35.4986 8.364758,51.54513 6.361249,14.81128 12.107696,23.86398 21.875242,34.46133 19.118692,20.7429 42.981672,34.01184 69.029762,38.38378 9.41012,1.5794 29.13767,1.58427 39.12034,0.01 z m -30.66667,-58.73479 c -18.3421,-3.55569 -37.45223,-19.23357 -44.73246,-36.69835 -3.41058,-8.18175 -3.83242,-10.78163 -3.88039,-23.9155 -0.053,-14.50217 0.0291,-14.90385 5.1783,-25.33334 6.77336,-13.71927 16.41494,-23.28554 30.01505,-29.78061 9.78613,-4.67361 10.54437,-4.8169 25.48921,-4.8169 15.10897,0 15.596,0.0954 25.50907,4.99494 26.51023,13.10279 40.76555,42.53963 33.71297,69.61632 -8.34665,32.04495 -39.47526,52.10119 -71.29175,45.93344 z m 26.758,-3.35845 c 10.9918,-3.2588 17.02347,-6.78955 25.65868,-15.01974 29.81281,-28.41452 21.57269,-77.40102 -16.01452,-95.20436 -8.58677,-4.06716 -9.88753,-4.29549 -24.47131,-4.29549 -15.08739,0 -15.60767,0.10142 -25.43285,4.95728 -12.47048,6.16325 -22.32899,16.19957 -28.16693,28.67495 -7.58352,16.20561 -6.51673,37.73478 2.66093,53.70111 7.00996,12.19518 23.71691,24.67797 37.31706,27.88186 8.13479,1.91637 20.67291,1.6098 28.44894,-0.69561 z m 872.85946,64.69296 c -46.6252,-6.82193 -88.59472,-43.9937 -100.15773,-88.70826 -17.23161,-66.63528 20.38904,-132.36066 86.68033,-151.4353 8.9834,-2.5849 13.6542,-3.02896 31.86,-3.02896 18.2058,0 22.8766,0.44406 31.86,3.02896 41.4043,11.91367 72.4653,41.90877 85.1875,82.26435 16.0638,50.95497 -2.3496,105.16961 -46.3808,136.55954 -25.5961,18.24749 -57.6297,25.9168 -89.0493,21.31967 z m 51.6501,-5.83087 c 40.5557,-11.97909 72.4209,-44.52839 83.5874,-85.38167 4.136,-15.13217 4.1285,-44.57985 -0.015,-60.00001 -7.342,-27.32063 -22.4886,-49.76786 -44.8394,-66.45172 -18.8057,-14.03763 -36.7213,-20.98517 -60,-23.26764 -19.8168,-1.94302 -39.7754,0.78818 -57.0864,7.81188 -34.1513,13.85645 -59.87892,42.56858 -71.07763,79.323 -3.22972,10.6 -3.63406,14.05562 -3.65675,31.25115 -0.0209,15.82426 0.51688,21.39038 2.96278,30.66667 12.10911,45.92473 50.0064,80.81105 97.071,89.35872 3.5495,0.64465 14.2537,0.95667 23.787,0.69339 13.856,-0.38267 19.7275,-1.1859 29.2675,-4.00377 z m -44.8569,-55.41692 c -17.4818,-2.94785 -35.1515,-16.86299 -43.4309,-34.20238 -4.8962,-10.25412 -4.9797,-10.69788 -4.9797,-26.45708 0,-15.43808 0.1619,-16.35699 4.3998,-24.96525 13.5481,-27.52009 42.5172,-41.19251 71.3607,-33.67973 10.3567,2.69757 16.4428,5.98363 24.5014,13.22893 13.6979,12.31566 20.5269,27.59184 20.613,46.11076 0.137,29.47499 -20.7675,54.44669 -50.1198,59.87122 -8.8043,1.62709 -13.1423,1.64525 -22.3445,0.0935 z m 27.0141,-3.4227 c 28.8395,-8.46074 47.3106,-36.51347 42.7371,-64.90635 -3.1806,-19.74594 -15.522,-36.54856 -33.2574,-45.27971 -8.5073,-4.1881 -9.4672,-4.356 -24.9044,-4.356 -15.4372,0 -16.3971,0.1679 -24.9044,4.356 -37.5158,18.46896 -45.5026,67.60624 -15.5669,95.77215 15.4213,14.50959 36.7885,20.01955 55.896,14.41391 z m 165.6479,-83.93 c -2.3434,-1.84711 -8.7746,-9.88667 -14.2915,-17.86569 -12.029,-17.39748 -18.8135,-25.72306 -40.2662,-49.41303 -19.433,-21.45961 -45.2427,-47.07445 -64.5149,-64.02779 -12.3548,-10.86825 -50.9223,-40.60337 -64.1198,-49.4356 -2.6326,-1.76181 -9.8098,-6.96865 -15.9494,-11.57076 -6.3568,-4.76487 -11.9829,-8.05285 -13.0673,-7.63671 -1.0474,0.40192 -7.6702,4.05558 -14.7173,8.11923 -18.2019,10.49603 -16.558,9.66049 -49.47954,25.14861 -16.5,7.76252 -32.1,15.15378 -34.66667,16.42501 -6.1873,3.06449 -18.77071,21.72041 -32.65827,48.41851 -15.80575,30.38575 -25.91969,40.12482 -57.34173,55.21636 -14.42745,6.92929 -34.85519,14.11682 -45.33334,15.95059 -7.19306,1.25886 -4.91306,-0.75723 6,-5.30549 30.16915,-12.57367 53.08794,-28.3769 64.11977,-44.21262 5.31148,-7.6244 19.85658,-47.55745 17.99884,-49.41519 -0.43007,-0.43007 -14.4327,3.80158 -31.11695,9.40366 -60.29204,20.2443 -106.306,30.91645 -164.335,38.11467 -97.68404,12.11723 -195.43753,4.30484 -271.33335,-21.6848 -26.39321,-9.03805 -30.87637,-12.4889 -9.75667,-7.51008 36.64638,8.63914 57.91556,12.07112 83.75668,13.51495 37.24716,2.08112 97.75407,0.12537 128.66667,-4.15886 5.13333,-0.71144 16.83333,-2.27914 26,-3.48379 9.16667,-1.20464 17.39117,-2.77048 18.27668,-3.47965 1.21952,-0.97667 0.80354,-2.56695 -1.71506,-6.55666 -1.82879,-2.897 -5.70599,-10.67772 -8.61599,-17.29049 -2.91001,-6.61278 -7.46542,-15.42252 -10.12314,-19.57721 -10.39788,-16.2545 -31.55595,-34.67241 -52.10133,-45.35374 -6.02003,-3.12975 -11.29985,-6.2638 -11.73295,-6.96456 -2.38782,-3.86358 26.68152,6.29799 47.057,16.4494 17.80412,8.87031 29.80914,19.68078 40.95531,36.88011 9.22371,14.23281 15.93903,20.92052 26.28495,26.17686 14.32903,7.28001 17.63364,7.50294 36.73104,2.47785 37.47691,-9.86128 49.03632,-13.43957 79.62135,-24.64733 31.22057,-11.44065 45.77334,-17.77186 81.79112,-35.58337 38.21956,-18.90034 88.23768,-48.59355 88.23768,-52.38221 0,-1.94968 -17.89164,-12.0649 -27.72519,-15.67472 -10.85162,-3.98354 -27.19188,-5.31584 -37.90075,-3.09025 -13.204,2.74416 -22.93536,8.65777 -36.22604,22.01404 -12.7206,12.78337 -21.07492,19.0041 -38.81467,28.90187 -21.36305,11.91936 -61.8055,29.16349 -68.3968,29.16349 -3.52533,0 0.86257,-3.71131 8.86232,-7.49579 29.46134,-13.93745 57.70417,-37.9574 70.3048,-59.79281 5.69315,-9.86557 19.4566,-23.73695 29.68316,-29.91592 4.97209,-3.00419 9.68063,-5.46215 10.46342,-5.46215 0.78279,0 2.13546,-0.85816 3.00594,-1.90702 2.03693,-2.45436 1.67442,-2.64318 -24.53829,-12.78186 -19.568,-7.56861 -43.99744,-15.05965 -69.69071,-21.36994 -10.41941,-2.55902 -11.39056,-2.5867 -19.25519,-0.54877 -14.81412,3.83873 -36.20073,12.52378 -47.10532,19.12937 -14.92161,9.03895 -19.81144,11.35946 -32,15.18587 -14.4291,4.5298 -34.74762,8.62492 -58.00001,11.68969 -22.17306,2.92251 -24,3.03145 -24,1.43108 0,-1.43628 4.98026,-3.29945 14.66667,-5.48697 23.37553,-5.27897 56.26192,-18.86295 72.64526,-30.00667 4.41178,-3.00083 12.99892,-8.38058 19.08254,-11.95498 6.08362,-3.57441 11.35816,-6.97953 11.7212,-7.56694 1.46488,-2.37023 -8.36554,-3.11116 -40.78233,-3.07379 -31.51793,0.0363 -53.61783,1.48874 -70,4.60042 -45.73316,8.68672 -94.86551,22.83532 -100.87018,29.04752 -4.24491,4.39161 -8.29907,25.14754 -11.79996,60.41171 -2.94823,29.69728 -13.70832,55.33585 -35.47781,84.53461 -7.31331,9.80913 -15.1854,18.04905 -15.1854,15.89497 0,-0.69884 2.4594,-5.4611 5.46533,-10.58279 13.7704,-23.46289 23.87889,-46.76545 27.1443,-62.57431 2.76394,-13.38111 1.49508,-75.40454 -1.54261,-75.40454 -2.94587,0 -47.1974,22.56667 -79.42289,40.50278 -51.24419,28.52157 -64.14466,36.958 -98.3108,64.29165 -26.32565,21.06109 -37.12496,28.19247 -52.00001,34.33844 -26.89,11.11025 -53.13968,14.27243 -140,16.86521 -58.044944,1.73263 -81.012477,5.05433 -110.666677,16.00527 -6.233334,2.3019 -12.833334,4.53955 -14.666668,4.97256 -3.044452,0.71906 -3.166656,0.58559 -1.410079,-1.54009 4.350854,-5.26509 34.039813,-18.18452 58.076749,-25.27266 34.181795,-10.0797 58.111595,-13.62205 105.079745,-15.55502 54.12215,-2.2274 75.44088,-6.03651 100.2536,-17.91277 16.69594,-7.99127 22.53809,-12.08066 43.61933,-30.5327 35.9326,-31.45115 75.24122,-60.18383 112.38068,-82.14478 15.41706,-9.11626 58.15293,-31.5488 66.16698,-34.73179 3.39183,-1.34715 8.79183,-3.63957 12,-5.09426 27.1052,-12.29037 76.76394,-27.34311 114.4997,-34.70756 36.9937,-7.21963 54.05816,-8.67359 102.66667,-8.74759 40.9288,-0.0623 48.49886,0.27045 68.66667,3.01831 52.0751,7.09521 104.66972,20.16399 146.00001,36.27826 7.7,3.00215 18.5,7.1773 24,9.2781 14.41851,5.50736 52.66771,23.53704 71.58481,33.74319 73.0969,39.43732 138.2384,86.67102 200.886,145.6611 20.4988,19.30207 26.7967,27.189 35.4649,44.41309 5.5269,10.98243 11.6481,28.89655 13.3561,39.08801 2.3686,14.13333 1.3637,32.60636 -2.096,38.53014 -6.1623,10.55145 -19.5288,13.97276 -28.1232,7.19851 z m 20.3022,-1.97099 c 14.8141,-9.15563 11.6341,-48.08912 -6.8588,-83.9744 -8.3196,-16.1441 -15.4856,-25.03991 -34.1287,-42.36734 C 1130.204,283.35825 996.86736,210.01517 860.00005,180.82967 c -41.24141,-8.7943 -78.43675,-11.99908 -128.66667,-11.08605 -42.82895,0.77851 -65.91266,3.2573 -101.36197,10.88456 -86.25065,18.55764 -168.74531,57.44907 -248.63805,117.21835 -15.05069,11.2597 -40.68608,32.45578 -53.72252,44.41931 -21.95013,20.14362 -50.57514,32.9272 -84.37005,37.67862 -5.81576,0.81767 -23.47411,2.05489 -39.24078,2.74938 -61.10344,2.69148 -89.21887,7.05705 -128.000005,19.87501 -14.081219,4.65412 -31.687123,12.32558 -23.333335,10.16708 39.174268,-10.12208 46.431828,-10.86293 138.00001,-14.087 58.00091,-2.04217 81.54701,-5.57734 105.21044,-15.7961 13.63649,-5.88876 23.3117,-12.27525 44.88253,-29.62646 25.61941,-20.60782 38.10526,-29.70284 56.25929,-40.98076 36.78994,-22.8552 122.16314,-68.2456 128.36073,-68.2456 1.35464,0 2.75614,0.47433 3.11444,1.05408 0.35831,0.57975 0.78793,17.52975 0.95472,37.66667 0.30115,36.35781 0.27818,36.69608 -3.30114,48.61258 -1.98243,6.6 -7.17758,19.5 -11.54479,28.66667 -9.09395,19.08801 -6.18616,17.53916 6.02489,-3.20918 12.86261,-21.85543 19.80301,-42.949 21.36627,-64.93731 2.07257,-29.15197 8.25899,-57.31404 13.31854,-60.62918 4.20311,-2.75398 35.47263,-13.10501 56.02077,-18.54433 40.11597,-10.61915 71.55114,-14.47124 117.33334,-14.3781 33.65412,0.0685 44,1.09637 44,4.3716 0,1.06318 -3.94405,4.08892 -8.76456,6.72387 -4.82052,2.63495 -14.03783,8.26354 -20.48292,12.50796 -16.78116,11.05126 -34.74989,19.74232 -55.41919,26.80498 l -18,6.15057 9.33333,-0.81548 c 20.35598,-1.77857 55.51607,-10.66142 68.71913,-17.36121 2.53782,-1.28779 8.8311,-4.9477 13.98508,-8.13313 16.10683,-9.95486 45.63869,-20.55594 57.23816,-20.54683 11.20673,0.009 58.70132,14.15873 90.72432,27.02924 21.00807,8.44346 21.74974,9.86473 8.61731,16.51333 -14.89604,7.54147 -25.10243,17.11931 -36.5318,34.28202 -12.32561,18.50853 -25.68197,31.58155 -46.18056,45.20088 -7.92626,5.26624 -14.18723,9.79914 -13.91325,10.07312 1.09283,1.09283 40.54857,-17.64619 53.19536,-25.26448 15.98741,-9.63063 20.64713,-13.31371 34.94706,-27.62241 12.43791,-12.44554 22.16846,-17.79312 36.8972,-20.27744 17.96242,-3.02975 35.65539,1.01473 55.60642,12.71123 6.9266,4.06075 10.6956,7.09491 10.6956,8.61019 0,6.83714 -84.45758,54.62857 -131.33335,74.3167 -40.31807,16.93385 -75.5264,28.94273 -115.2875,39.32233 -23.72564,6.19357 -27.41972,6.1839 -40.86291,-0.10693 -10.74482,-5.02811 -18.71756,-11.28726 -23.33726,-18.3214 -1.85567,-2.8255 -6.17124,-9.46679 -9.59015,-14.75841 -7.13473,-11.04276 -19.43634,-21.87804 -33.58886,-29.58513 -9.95491,-5.42119 -27.24014,-12.66471 -28.12065,-11.78419 -0.29173,0.29172 3.62083,3.36683 8.69458,6.83357 20.87496,14.26323 35.98189,32.48113 46.01447,55.49022 2.7179,6.23333 6.69738,14.08586 8.84329,17.45006 4.1285,6.47238 4.69107,8.57134 2.63745,9.84054 -1.57195,0.97152 -42.61111,6.77142 -61.16585,8.64432 -7.56985,0.7641 -29.66769,2.0305 -49.10629,2.81424 -46.9745,1.89394 -81.80126,0.14707 -110.74221,-5.55471 -11.34618,-2.23535 -20.89234,-3.80135 -21.2137,-3.47999 -1.1128,1.1128 28.46411,9.06474 50.41651,13.55479 41.31508,8.45042 72.23946,11.34611 121.49255,11.37631 39.80895,0.0244 63.69936,-1.43997 98.35802,-6.02892 57.46711,-7.6089 114.24504,-21.44383 169.22518,-41.23467 18.07407,-6.506 21.03043,-7.05609 22.15615,-4.12253 0.87303,2.2751 -10.18899,35.56221 -15.28237,45.98668 -6.37875,13.05519 -23.60158,28.13837 -46.20711,40.46666 -10.33486,5.63627 -7.61736,5.38913 6.66666,-0.60631 22.11112,-9.28071 41.82398,-22.69028 50.80195,-34.55775 3.00222,-3.96846 9.80064,-15.61539 15.1076,-25.88206 5.30697,-10.26666 13.55274,-24.49882 18.32393,-31.62701 7.56594,-11.30354 9.55432,-13.37265 15.55405,-16.18562 52.08882,-24.42175 63.05532,-29.87365 84.39512,-41.95622 6.7005,-3.7938 13.6005,-6.87791 15.3334,-6.85358 1.8114,0.0254 9.6685,4.85528 18.484,11.36224 8.4333,6.2249 23.5514,17.35609 33.5957,24.73598 25.9036,19.03222 44.1736,34.53624 66.4043,56.35099 38.5659,37.84433 63.0003,65.24926 78.5678,88.11951 11.8342,17.38551 16.9823,22.05372 24.3212,22.05372 3.1531,0 7.3048,-1.13835 9.8191,-2.69227 z"
         id="path3" />
      <path
         style="display:inline;fill:#6a3c23"
         d="M 164.87967,670.60318 C 138.83158,666.23124 114.9686,652.9623 95.849908,632.2194 86.082362,621.62205 80.335915,612.56935 73.974666,597.75807 67.082892,581.71154 64.94043,568.50931 65.609908,546.21294 c 0.509275,-16.96091 1.006373,-20.16687 4.891387,-31.54626 7.474355,-21.89274 18.939604,-39.17054 35.391065,-53.33333 31.39204,-27.02489 72.06418,-36.15694 112.50656,-25.26092 35.82935,9.65317 67.9771,40.17116 80.3724,76.29783 24.39268,71.09356 -20.81427,146.57699 -94.77131,158.24258 -9.98267,1.57461 -29.71022,1.56974 -39.12034,-0.01 z m 31.27169,-58.6102 c 23.00225,-4.29291 42.39667,-22.71694 48.47373,-46.04837 3.51868,-13.5091 1.84923,-27.8005 -4.87978,-41.77368 -4.82567,-10.02077 -17.46072,-22.22175 -28.83319,-27.84264 -9.91307,-4.89958 -10.4001,-4.99494 -25.50907,-4.99494 -14.94484,0 -15.70308,0.14329 -25.48921,4.8169 -13.60011,6.49507 -23.24169,16.06134 -30.01505,29.78061 -5.14916,10.42949 -5.23126,10.83117 -5.1783,25.33334 0.048,13.13387 0.46981,15.73375 3.88039,23.9155 10.82412,25.96635 40.12107,41.93243 67.55048,36.81328 z m 875.39504,58.69909 c -47.0646,-8.54767 -84.96189,-43.43399 -97.071,-89.35872 -2.4459,-9.27629 -2.98366,-14.84241 -2.96278,-30.66667 0.0227,-17.19553 0.42703,-20.65115 3.65675,-31.25115 11.19871,-36.75442 36.92633,-65.46655 71.07763,-79.323 17.311,-7.0237 37.2696,-9.7549 57.0864,-7.81188 23.2787,2.28247 41.1943,9.23001 60,23.26764 22.3508,16.68386 37.4974,39.13109 44.8394,66.45172 4.144,15.42016 4.1515,44.86784 0.015,60.00001 -11.1665,40.85328 -43.0317,73.40258 -83.5874,85.38167 -9.54,2.81787 -15.4115,3.6211 -29.2675,4.00377 -9.5333,0.26328 -20.2375,-0.0487 -23.787,-0.69339 z m 30.5421,-58.82083 c 14.851,-2.74458 29.882,-12.02456 38.5066,-23.77358 18.6616,-25.4223 14.7862,-60.82273 -8.9998,-82.2084 -8.0586,-7.2453 -14.1447,-10.53136 -24.5014,-13.22893 -28.8435,-7.51278 -57.8126,6.15964 -71.3607,33.67973 -4.2379,8.60826 -4.3998,9.52717 -4.3998,24.96525 0,15.7592 0.083,16.20296 4.9797,26.45708 6.1448,12.86889 15.6377,22.54477 28.173,28.71588 13.0281,6.41371 23.7547,7.95213 37.6024,5.39297 z m 170.5576,-90.73489 c -2.6291,-2.30835 -8.9642,-10.34387 -14.0782,-17.85672 -15.5675,-22.87025 -40.0019,-50.27518 -78.5678,-88.11951 -22.2307,-21.81475 -40.5007,-37.31877 -66.4043,-56.35099 -10.0443,-7.37989 -25.1624,-18.51108 -33.5957,-24.73598 -8.8155,-6.50696 -16.6726,-11.33681 -18.484,-11.36224 -1.7329,-0.0243 -8.6329,3.05978 -15.3334,6.85358 -21.3398,12.08257 -32.3063,17.53447 -84.39512,41.95622 -5.99973,2.81297 -7.98811,4.88208 -15.55405,16.18562 -4.77119,7.12819 -13.01696,21.36035 -18.32393,31.62701 -5.30696,10.26667 -12.10538,21.9136 -15.1076,25.88206 -8.97797,11.86747 -28.69083,25.27704 -50.80195,34.55775 -14.28402,5.99544 -17.00152,6.24258 -6.66666,0.60631 22.60553,-12.32829 39.82836,-27.41147 46.20711,-40.46666 5.09338,-10.42447 16.1554,-43.71158 15.28237,-45.98668 -1.12572,-2.93356 -4.08208,-2.38347 -22.15615,4.12253 -54.98014,19.79084 -111.75807,33.62577 -169.22518,41.23467 -34.65866,4.58895 -58.54907,6.05333 -98.35802,6.02892 -49.25309,-0.0302 -80.17747,-2.92589 -121.49255,-11.37631 -21.9524,-4.49005 -51.52931,-12.44199 -50.41651,-13.55479 0.32136,-0.32136 9.86752,1.24464 21.2137,3.47999 28.94095,5.70178 63.76771,7.44865 110.74221,5.55471 19.4386,-0.78374 41.53644,-2.05014 49.10629,-2.81424 18.55474,-1.8729 59.5939,-7.6728 61.16585,-8.64432 2.05362,-1.2692 1.49105,-3.36816 -2.63745,-9.84054 -2.14591,-3.3642 -6.12539,-11.21673 -8.84329,-17.45006 -10.03258,-23.00909 -25.13951,-41.22699 -46.01447,-55.49022 -5.07375,-3.46674 -8.98631,-6.54185 -8.69458,-6.83357 0.88051,-0.88052 18.16574,6.363 28.12065,11.78419 14.15252,7.70709 26.45413,18.54237 33.58886,29.58513 3.41891,5.29162 7.73448,11.93291 9.59015,14.75841 4.6197,7.03414 12.59244,13.29329 23.33726,18.3214 13.44319,6.29083 17.13727,6.3005 40.86291,0.10693 39.7611,-10.3796 74.96943,-22.38848 115.2875,-39.32233 46.87577,-19.68813 131.33335,-67.47956 131.33335,-74.3167 0,-1.51528 -3.769,-4.54944 -10.6956,-8.61019 -19.95103,-11.6965 -37.644,-15.74098 -55.60642,-12.71123 -14.72874,2.48432 -24.45929,7.8319 -36.8972,20.27744 -14.29993,14.3087 -18.95965,17.99178 -34.94706,27.62241 -12.64679,7.61829 -52.10253,26.35731 -53.19536,25.26448 -0.27398,-0.27398 5.98699,-4.80688 13.91325,-10.07312 20.49859,-13.61933 33.85495,-26.69235 46.18056,-45.20088 11.42937,-17.16271 21.63576,-26.74055 36.5318,-34.28202 13.13243,-6.6486 12.39076,-8.06987 -8.61731,-16.51333 -32.023,-12.87051 -79.51759,-27.02045 -90.72432,-27.02924 -11.59947,-0.009 -41.13133,10.59197 -57.23816,20.54683 -5.15398,3.18543 -11.44726,6.84534 -13.98508,8.13313 -13.20306,6.69979 -48.36315,15.58264 -68.71913,17.36121 l -9.33333,0.81548 18,-6.15057 c 20.6693,-7.06266 38.63803,-15.75372 55.41919,-26.80498 6.44509,-4.24442 15.6624,-9.87301 20.48292,-12.50796 16.78236,-9.17346 10.97724,-11.00147 -35.23544,-11.09547 -45.7822,-0.0931 -77.21737,3.75895 -117.33334,14.3781 -20.54814,5.43932 -51.81766,15.79035 -56.02077,18.54433 -5.05955,3.31514 -11.24597,31.47721 -13.31854,60.62918 -1.56326,21.98831 -8.50366,43.08188 -21.36627,64.93731 -12.21105,20.74834 -15.11884,22.29719 -6.02489,3.20918 4.36721,-9.16667 9.56236,-22.06667 11.54479,-28.66667 3.57932,-11.9165 3.60229,-12.25477 3.30114,-48.61258 -0.16679,-20.13692 -0.59641,-37.08692 -0.95472,-37.66667 -0.3583,-0.57975 -1.7598,-1.05408 -3.11444,-1.05408 -6.19759,0 -91.57079,45.3904 -128.36073,68.2456 -18.15403,11.27792 -30.63988,20.37294 -56.25929,40.98076 -21.57083,17.35121 -31.24604,23.7377 -44.88253,29.62646 -23.66343,10.21876 -47.20953,13.75393 -105.21044,15.7961 -91.568182,3.22407 -98.825742,3.96492 -138.00001,14.087 -8.353788,2.1585 9.252116,-5.51296 23.333335,-10.16708 38.781135,-12.81796 66.896565,-17.18353 128.000005,-19.87501 15.76667,-0.69449 33.42502,-1.93171 39.24078,-2.74938 33.79491,-4.75142 62.41992,-17.535 84.37005,-37.67862 13.03644,-11.96353 38.67183,-33.15961 53.72252,-44.41931 79.89274,-59.76928 162.3874,-98.66071 248.63805,-117.21835 35.44931,-7.62726 58.53302,-10.10605 101.36197,-10.88456 50.22992,-0.91303 87.42526,2.29175 128.66667,11.08605 136.86731,29.1855 270.20395,102.52858 391.72065,215.46967 18.6431,17.32743 25.8091,26.22324 34.1287,42.36734 18.4929,35.88528 21.6729,74.81877 6.8588,83.9744 -6.7238,4.15549 -14.2592,3.5903 -20.0621,-1.50473 z"
         id="path2" />
    </g>
  </g>
</svg>
